# xmcd CD database file
#
# Track frame offsets:
#	150
#	900
#	1650
#	2400
#	3150
#	3900
#	4650
#	5400
#	6150
#	6900
#	7650
#	8400
#	9150
#	9900
#	10650
#	11400
#	336470
#
# Disc length: 4795 seconds
#
# Revision: 7
# Processed by: cddbd v1.5.2PL0 Copyright (c) Steve Scherf et al.
# Submitted via: CDex 1.40Release
#
DISCID=7812b911
DTITLE=Isreal Vibration - Live and Jammin'
DYEAR=2003
DGENRE=Reggae
TTITLE0=Warm Up
TTITLE1=African Unification
TTITLE2=Rockfort Rock
TTITLE3=Jammin'
TTITLE4=Vultures
TTITLE5=Level Every Angle
TTITLE6=Ball Of Fire
TTITLE7=Get Up 'n' Go
TTITLE8=Why Worry
TTITLE9=Never Gone Hurt You
TTITLE10=Cool And Calm
TTITLE11=Feelin Irie
TTITLE12=Lick and Kicks
TTITLE13=The Same Song
TTITLE14=Red Eyes
TTITLE15=Extra1
TTITLE16=Extra2
EXTD=YEAR: 2003 ID3G: 16
EXTT0=
EXTT1=
EXTT2=
EXTT3=
EXTT4=
EXTT5=
EXTT6=
EXTT7=
EXTT8=
EXTT9=
EXTT10=
EXTT11=
EXTT12=
EXTT13=
EXTT14=
EXTT15=
EXTT16=
PLAYORDER=
